<svg xmlns="http://www.w3.org/2000/svg" viewBox="0 0 297.65 198.65"><defs><style>.cls-1{fill:#afafac;}.cls-2{fill:#a8a7a7;}.cls-3{fill:#d6d6d6;}.cls-4{fill:#393d45;}.cls-5{fill:#9fd3f8;}.cls-6{fill:#75c2f9;}.cls-7{fill:#fff;}.cls-8{fill:#f32;}.cls-9{fill:#f4df60;}.cls-10{fill:#68cd5f;}.cls-11{fill:#a5a5a5;}.cls-12{fill:#f5f5f5;}.cls-13{fill:#e22d1e;}.cls-14{fill:#1b94eb;}</style></defs><title>Ресурс 3</title><g id="Слой_2" data-name="Слой 2"><g id="OBJECTS"><polygon class="cls-1" points="146.81 165.21 97.91 165.21 89.71 194.86 155.01 194.86 146.81 165.21"/><path class="cls-2" d="M83.38,192.9H161a3,3,0,0,1,3,3v1.51a0,0,0,0,1,0,0H80.38a0,0,0,0,1,0,0v-1.51A3,3,0,0,1,83.38,192.9Z"/><path class="cls-3" d="M0,145.7v15.08a6.51,6.51,0,0,0,6.51,6.51H238.19a6.51,6.51,0,0,0,6.51-6.51V145.7Z"/><path class="cls-4" d="M244.7,6.51A6.51,6.51,0,0,0,238.19,0H6.51A6.51,6.51,0,0,0,0,6.51V145.7H244.7Z"/><rect class="cls-5" x="9.67" y="9.04" width="227.22" height="128.13"/><polygon class="cls-6" points="121.94 137.18 9.67 137.18 9.67 9.04 72.79 9.04 121.94 137.18"/><path class="cls-7" d="M81.46,77.55V69.39l-7.13-.79a19.82,19.82,0,0,0-2.22-5.35l4.49-5.6-5.77-5.77-5.61,4.49a19.81,19.81,0,0,0-5.34-2.21L59.08,47H50.92l-.79,7.14a19.81,19.81,0,0,0-5.34,2.21l-5.61-4.49-5.77,5.77,4.49,5.6a19.82,19.82,0,0,0-2.22,5.35l-7.13.79v8.16l7.12.79a19.81,19.81,0,0,0,2.22,5.36l-4.47,5.59,5.77,5.77,5.58-4.47a19.82,19.82,0,0,0,5.37,2.23l.79,7.1h8.16l.79-7.1a19.81,19.81,0,0,0,5.37-2.23l5.58,4.47,5.77-5.77L72.12,83.7a19.81,19.81,0,0,0,2.22-5.36ZM55,85.53a12,12,0,1,1,12-12A12,12,0,0,1,55,85.53Z"/><rect class="cls-8" x="172.68" y="74.29" width="41.98" height="41.98"/><circle class="cls-9" cx="149.04" cy="95.25" r="21"/><polygon class="cls-10" points="171.43 28.67 147.07 70.87 195.79 70.87 171.43 28.67"/><circle class="cls-11" cx="122.81" cy="155.94" r="3.89"/><path class="cls-5" d="M238.27,130.91l-9.91,10.2a179.93,179.93,0,0,0,16.09,17.5c9,8.71,38.67,32.32,47.49,39.29a3.52,3.52,0,0,0,4.87-5c-7.44-8.81-33-38.93-40.69-46.44A220.62,220.62,0,0,0,238.27,130.91Z"/><path class="cls-12" d="M225.6,140c-4.91,1.24-9.83-2.32-10.26-14-.35-9.33-3.19-14.76-8.28-17.57,13.85-1.33,29.17,8.24,29.82,20Z"/><path class="cls-13" d="M214.75,121.63c.28,1.16,2.55-.68,1.45-4.17-.72-2.28-.87-3-.14-3,.37,0,1,.52,1.56,1.46.42.71,1.2,1,1.74.34s.1-1.11-.53-1.47c-1.13-.66-1.75-1.08-1.36-1.74.7-1.17,3.34.16,5.58,3.3s3.62-.3,1.53-1.41-4.74-2.72-4.73-3.52,2-.17,3.47.81,1.75.26,1.32-.24-7-3.18-10-3.56-6.91-.49-7.78-.09C208.61,109.36,213.73,112.81,214.75,121.63Z"/><rect class="cls-14" x="221.82" y="133.09" width="21" height="4.42" rx="2.03" ry="2.03" transform="translate(-26.62 207.58) rotate(-45.81)"/></g></g></svg>