<svg xmlns="http://www.w3.org/2000/svg" viewBox="0 0 338.32 240.63"><defs><style>.cls-1{fill:#f4df60;}.cls-12,.cls-2{fill:#fbf8ff;}.cls-2{stroke:#a6a4f7;}.cls-14,.cls-15,.cls-2,.cls-8{stroke-miterlimit:10;}.cls-3{fill:#68cd5f;}.cls-4{fill:#f32;}.cls-5{fill:#9fd3f8;}.cls-6{fill:#ebd44d;}.cls-7{fill:#44aefa;}.cls-14,.cls-15,.cls-8{fill:none;}.cls-8{stroke:#5ebb55;}.cls-9{fill:#1b94eb;}.cls-10{fill:#75c2f9;}.cls-11{fill:#fff;}.cls-13{fill:#5ebb55;}.cls-14{stroke:#75c2f9;}.cls-15{stroke:#f32;}</style></defs><title>development_services</title><g id="OBJECTS"><path class="cls-1" d="M362.92,160.68V263.15a9.24,9.24,0,0,0,9.24,9.24H499a9.24,9.24,0,0,0,9.24-9.24V160.68a9.24,9.24,0,0,0-9.24-9.24H372.15A9.24,9.24,0,0,0,362.92,160.68Zm136.17,107H372a3.42,3.42,0,0,1-3.42-3.42V159.6a3.42,3.42,0,0,1,3.42-3.42H499.09a3.42,3.42,0,0,1,3.42,3.42V264.23A3.42,3.42,0,0,1,499.09,267.65Z" transform="translate(-314.36 -135.36)"/><path class="cls-2" d="M596,209.17v133a6.19,6.19,0,0,1-6.19,6.19H387a6.19,6.19,0,0,1-6.19-6.19v-133a14.3,14.3,0,0,1,14.3-14.3H581.73A14.3,14.3,0,0,1,596,209.17Z" transform="translate(-314.36 -135.36)"/><path class="cls-3" d="M596,209.17v.6H380.85v-.6a14.3,14.3,0,0,1,14.3-14.3H581.73A14.3,14.3,0,0,1,596,209.17Z" transform="translate(-314.36 -135.36)"/><path class="cls-4" d="M418.52,221.06H392.69a3.12,3.12,0,0,1-3.12-3.12h0a3.12,3.12,0,0,1,3.12-3.12h25.83a3.12,3.12,0,0,1,3.12,3.12h0A3.12,3.12,0,0,1,418.52,221.06Z" transform="translate(-314.36 -135.36)"/><path class="cls-5" d="M513.91,220.4H502.53a1.83,1.83,0,0,1-1.83-1.83h0a1.83,1.83,0,0,1,1.83-1.83h11.38a1.83,1.83,0,0,1,1.83,1.83h0A1.83,1.83,0,0,1,513.91,220.4Z" transform="translate(-314.36 -135.36)"/><path class="cls-5" d="M535.42,220.4H524a1.83,1.83,0,0,1-1.83-1.83h0a1.83,1.83,0,0,1,1.83-1.83h11.38a1.83,1.83,0,0,1,1.83,1.83h0A1.83,1.83,0,0,1,535.42,220.4Z" transform="translate(-314.36 -135.36)"/><path class="cls-5" d="M557.27,220.4H545.89a1.83,1.83,0,0,1-1.83-1.83h0a1.83,1.83,0,0,1,1.83-1.83h11.38a1.83,1.83,0,0,1,1.83,1.83h0A1.83,1.83,0,0,1,557.27,220.4Z" transform="translate(-314.36 -135.36)"/><path class="cls-5" d="M578.78,220.4H567.4a1.83,1.83,0,0,1-1.83-1.83h0a1.83,1.83,0,0,1,1.83-1.83h11.38a1.83,1.83,0,0,1,1.83,1.83h0A1.83,1.83,0,0,1,578.78,220.4Z" transform="translate(-314.36 -135.36)"/><rect class="cls-5" x="85.54" y="104.45" width="88.54" height="57.91" rx="2.16" ry="2.16"/><rect class="cls-5" x="192.22" y="104.45" width="51.18" height="9.13" rx="1.68" ry="1.68"/><path class="cls-5" d="M542.43,260H508.2a1.62,1.62,0,0,1-1.62-1.62h0a1.62,1.62,0,0,1,1.62-1.62h34.23a1.62,1.62,0,0,1,1.62,1.62h0A1.62,1.62,0,0,1,542.43,260Z" transform="translate(-314.36 -135.36)"/><path class="cls-5" d="M576.68,267.79H508.2a1.62,1.62,0,0,1-1.62-1.62h0a1.62,1.62,0,0,1,1.62-1.62h68.48a1.62,1.62,0,0,1,1.62,1.62h0A1.62,1.62,0,0,1,576.68,267.79Z" transform="translate(-314.36 -135.36)"/><path class="cls-5" d="M576.68,275.63H508.2a1.62,1.62,0,0,1-1.62-1.62h0a1.62,1.62,0,0,1,1.62-1.62h68.48A1.62,1.62,0,0,1,578.3,274h0A1.62,1.62,0,0,1,576.68,275.63Z" transform="translate(-314.36 -135.36)"/><path class="cls-5" d="M576.68,283.47H508.2a1.62,1.62,0,0,1-1.62-1.62h0a1.62,1.62,0,0,1,1.62-1.62h68.48a1.62,1.62,0,0,1,1.62,1.62h0A1.62,1.62,0,0,1,576.68,283.47Z" transform="translate(-314.36 -135.36)"/><path class="cls-6" d="M529.78,300.26H510.11a3.53,3.53,0,0,1-3.53-3.53h0a3.53,3.53,0,0,1,3.53-3.53h19.67a3.53,3.53,0,0,1,3.53,3.53h0A3.53,3.53,0,0,1,529.78,300.26Z" transform="translate(-314.36 -135.36)"/><path class="cls-5" d="M596,319.7v22.46a6.19,6.19,0,0,1-6.19,6.19H387a6.19,6.19,0,0,1-6.19-6.19V319.7Z" transform="translate(-314.36 -135.36)"/><path class="cls-3" d="M538.84,332.7v15.65H438V332.7a3.28,3.28,0,0,1,3.28-3.28h94.25A3.28,3.28,0,0,1,538.84,332.7Z" transform="translate(-314.36 -135.36)"/><circle class="cls-4" cx="247.12" cy="67.65" r="1.86"/><circle class="cls-6" cx="257.31" cy="67.65" r="1.86"/><circle class="cls-7" cx="267.04" cy="67.65" r="1.86"/><path class="cls-8" d="M596,209.17v133a6.19,6.19,0,0,1-6.19,6.19H387a6.19,6.19,0,0,1-6.19-6.19v-133a14.3,14.3,0,0,1,14.3-14.3H581.73A14.3,14.3,0,0,1,596,209.17Z" transform="translate(-314.36 -135.36)"/><rect class="cls-6" x="14.87" y="44.28" width="87.62" height="67" rx="2.58" ry="2.58"/><path class="cls-1" d="M416.85,221.62v22.44a2.58,2.58,0,0,1-2.58,2.58H331.8a2.58,2.58,0,0,1-2.58-2.58V222.46s14.07-24.26,24.05-24.26c12.44,0,19.51,28.31,25.69,28.31S393.21,207,401.39,207C406.29,207,412.59,215.13,416.85,221.62Z" transform="translate(-314.36 -135.36)"/><circle class="cls-1" cx="85.54" cy="58.14" r="5.71"/><rect class="cls-9" x="263.87" y="99.62" width="51.05" height="68.2" rx="1.66" ry="1.66"/><rect class="cls-5" x="272.75" y="107.03" width="33.3" height="4.5"/><path class="cls-6" d="M610.73,295.94H596.78a2.52,2.52,0,0,1-2.52-2.52h0a2.52,2.52,0,0,1,2.52-2.52h13.95a2.52,2.52,0,0,1,2.52,2.52h0A2.52,2.52,0,0,1,610.73,295.94Z" transform="translate(-314.36 -135.36)"/><rect class="cls-5" x="275.77" y="118.08" width="15.5" height="2.13" rx="0.98" ry="0.98"/><rect class="cls-5" x="275.77" y="123.31" width="33.01" height="2.13" rx="0.98" ry="0.98"/><rect class="cls-5" x="275.77" y="128.54" width="33.01" height="2.13" rx="0.98" ry="0.98"/><circle class="cls-5" cx="269.33" cy="119.14" r="1.06"/><rect class="cls-5" x="275.77" y="135.46" width="15.5" height="2.13" rx="0.98" ry="0.98"/><rect class="cls-5" x="275.77" y="140.69" width="33.01" height="2.13" rx="0.98" ry="0.98"/><rect class="cls-5" x="275.77" y="145.92" width="33.01" height="2.13" rx="0.98" ry="0.98"/><circle class="cls-5" cx="269.33" cy="136.52" r="1.06"/><path class="cls-4" d="M651.7,233.52l-24.42,20.14a5.38,5.38,0,0,1-.6.44,6.12,6.12,0,0,1-1.68.76L621,256a.57.57,0,0,1-.66-.8l1.85-3.67a6.4,6.4,0,0,1,1-1.48,5.73,5.73,0,0,1,.56-.53l24.3-20a2.8,2.8,0,0,1,3.82.16A2.7,2.7,0,0,1,651.7,233.52Z" transform="translate(-314.36 -135.36)"/><path class="cls-1" d="M626.68,254.1a6.12,6.12,0,0,1-1.68.76l-2.31.66L621,256a.57.57,0,0,1-.66-.8l.77-1.52,1.08-2.15a6.4,6.4,0,0,1,1-1.48A4.78,4.78,0,0,1,626.68,254.1Z" transform="translate(-314.36 -135.36)"/><path class="cls-4" d="M622.69,255.52,621,256a.57.57,0,0,1-.66-.8l.77-1.52A1.52,1.52,0,0,1,622.69,255.52Z" transform="translate(-314.36 -135.36)"/><rect class="cls-10" x="159.85" width="70.03" height="50.4" rx="4.01" ry="4.01"/><path class="cls-9" d="M544.24,176.07v5.67a4,4,0,0,1-4,4h-62a4,4,0,0,1-4-4v-5.67Z" transform="translate(-314.36 -135.36)"/><path class="cls-10" d="M511.39,181.39a2.24,2.24,0,0,0,.39,1.27H480.46a1.27,1.27,0,1,1,0-2.53h31.32A2.24,2.24,0,0,0,511.39,181.39Z" transform="translate(-314.36 -135.36)"/><path class="cls-10" d="M522.21,181.39a1.27,1.27,0,0,1-1.27,1.27h-9.16a2.24,2.24,0,0,1,0-2.53h9.16A1.27,1.27,0,0,1,522.21,181.39Z" transform="translate(-314.36 -135.36)"/><path class="cls-11" d="M515.89,181.39a2.26,2.26,0,1,1-.39-1.27A2.24,2.24,0,0,1,515.89,181.39Z" transform="translate(-314.36 -135.36)"/><circle class="cls-9" cx="199.28" cy="46.03" r="1.1"/><path class="cls-10" d="M531.66,182.51v-2.11a.37.37,0,0,1,.54-.33l2.11,1.06a.37.37,0,0,1,0,.66l-2.11,1.06A.37.37,0,0,1,531.66,182.51Z" transform="translate(-314.36 -135.36)"/><path class="cls-10" d="M537.35,182.1V180.8c0-.17.14-.28.26-.2l1,.65a.26.26,0,0,1,0,.41l-1,.65C537.49,182.38,537.35,182.27,537.35,182.1Z" transform="translate(-314.36 -135.36)"/><path class="cls-10" d="M538.73,182.1V180.8c0-.17.14-.28.26-.2l1,.65a.26.26,0,0,1,0,.41l-1,.65C538.87,182.38,538.73,182.27,538.73,182.1Z" transform="translate(-314.36 -135.36)"/><path class="cls-10" d="M529.06,182.1V180.8c0-.17-.14-.28-.26-.2l-1,.65a.26.26,0,0,0,0,.41l1,.65C528.92,182.38,529.06,182.27,529.06,182.1Z" transform="translate(-314.36 -135.36)"/><path class="cls-10" d="M527.68,182.1V180.8c0-.17-.14-.28-.26-.2l-1,.65a.26.26,0,0,0,0,.41l1,.65C527.54,182.38,527.68,182.27,527.68,182.1Z" transform="translate(-314.36 -135.36)"/><circle class="cls-12" cx="194.86" cy="21" r="12.48"/><path class="cls-10" d="M505.93,160.19v-7.68a1.07,1.07,0,0,1,1.65-.9l5.9,3.84a1.07,1.07,0,0,1,0,1.79l-5.9,3.84A1.07,1.07,0,0,1,505.93,160.19Z" transform="translate(-314.36 -135.36)"/><path class="cls-6" d="M504.27,315.61h35.38l9.24,9.33v48.88a1.43,1.43,0,0,1-1.43,1.43H503.94a1.43,1.43,0,0,1-1.43-1.43V317.36A1.76,1.76,0,0,1,504.27,315.61Z" transform="translate(-314.36 -135.36)"/><path class="cls-1" d="M539.65,315.61v7.73a1.6,1.6,0,0,0,1.6,1.6h7.65Z" transform="translate(-314.36 -135.36)"/><circle class="cls-5" cx="37.3" cy="146.65" r="1.85"/><circle class="cls-5" cx="28.44" cy="146.65" r="1.85"/><circle class="cls-5" cx="19.58" cy="146.65" r="1.85"/><circle class="cls-5" cx="10.71" cy="146.65" r="1.85"/><circle class="cls-5" cx="1.85" cy="146.65" r="1.85"/><circle class="cls-13" cx="42.93" cy="154.54" r="1.85"/><circle class="cls-13" cx="34.06" cy="154.54" r="1.85"/><circle class="cls-13" cx="25.2" cy="154.54" r="1.85"/><circle class="cls-13" cx="16.34" cy="154.54" r="1.85"/><circle class="cls-13" cx="7.47" cy="154.54" r="1.85"/><circle class="cls-4" cx="48.02" cy="162.43" r="1.85"/><circle class="cls-4" cx="39.15" cy="162.43" r="1.85"/><circle class="cls-4" cx="30.29" cy="162.43" r="1.85"/><circle class="cls-4" cx="21.43" cy="162.43" r="1.85"/><circle class="cls-4" cx="12.56" cy="162.43" r="1.85"/><path class="cls-1" d="M448.39,365.55H419.18a2.09,2.09,0,0,1-2.09-2.09h0a2.09,2.09,0,0,1,2.09-2.09h29.21a2.09,2.09,0,0,1,2.09,2.09h0A2.09,2.09,0,0,1,448.39,365.55Z" transform="translate(-314.36 -135.36)"/><path class="cls-4" d="M448.39,376H419.18a2.09,2.09,0,0,1-2.09-2.09h0a2.09,2.09,0,0,1,2.09-2.09h29.21a2.09,2.09,0,0,1,2.09,2.09h0A2.09,2.09,0,0,1,448.39,376Z" transform="translate(-314.36 -135.36)"/><path class="cls-14" d="M613.46,167.25l6.38-1.2v-5.72l-6.38-1.1h0a19,19,0,0,0-2.7-6.5l3.66-5.37-4-4-5.29,3.74a19,19,0,0,0-6.5-2.69h0l-1.2-6.38h-5.72l-1.1,6.38h0a19,19,0,0,0-6.5,2.7h0l-5.36-3.66-4,4,3.74,5.29a19,19,0,0,0-2.69,6.5h0l-6.38,1.2v5.72l6.38,1.1a19,19,0,0,0,2.7,6.5l-3.66,5.36,4,4,5.3-3.74a18.86,18.86,0,0,0,6.5,2.69h0l1.2,6.38h5.72l1.1-6.38a19,19,0,0,0,6.5-2.7l5.36,3.66,4-4-3.74-5.29a18.84,18.84,0,0,0,2.69-6.5Zm-18.89,7.84a11.84,11.84,0,1,1,11.84-11.84A11.84,11.84,0,0,1,594.58,175.09Z" transform="translate(-314.36 -135.36)"/><path class="cls-15" d="M635.48,204.48l3.68,1.29,1.72-3-3-2.49h0a11.38,11.38,0,0,0,.55-4.19l3.52-1.69-.89-3.32-3.87.36a11.4,11.4,0,0,0-2.57-3.35h0l1.29-3.68-3-1.72-2.49,3h0a11.38,11.38,0,0,0-4.19-.55h0l-1.69-3.51-3.32.89.36,3.88a11.41,11.41,0,0,0-3.35,2.57h0l-3.68-1.29-1.72,3,3,2.49a11.4,11.4,0,0,0-.55,4.19L611.78,199l.89,3.32,3.88-.36a11.33,11.33,0,0,0,2.57,3.35h0L617.83,209l3,1.72,2.49-3a11.39,11.39,0,0,0,4.19.55l1.69,3.51,3.32-.89-.36-3.88a11.31,11.31,0,0,0,3.35-2.57Zm-12.17-1.59a7.11,7.11,0,1,1,9.71-2.61A7.11,7.11,0,0,1,623.31,202.89Z" transform="translate(-314.36 -135.36)"/></g></svg>