<svg xmlns="http://www.w3.org/2000/svg" viewBox="0 0 762.39 732.36"><defs><style>.cls-1{isolation:isolate;}.cls-2{fill:#080808;}.cls-3{fill:#44aefa;}.cls-4{fill:#fff;}.cls-5{fill:#699db7;}.cls-6{fill:#cecece;}.cls-12,.cls-6{opacity:0.87;mix-blend-mode:multiply;}.cls-7{fill:#71a5c5;}.cls-8{fill:#f4df60;}.cls-9{fill:#85ccc6;}.cls-10{fill:#1b94eb;}.cls-11{fill:#9fd3f8;}.cls-13{fill:#f32;}.cls-14{fill:#68cd5f;}</style></defs><title>Ресурс 1</title><g class="cls-1"><g id="Слой_2" data-name="Слой 2"><g id="Graphic"><path class="cls-2" d="M619.08,639.43h-3V470.57a24.38,24.38,0,0,0-24.35-24.36H499.51a27.42,27.42,0,0,1-27.4-27.39V387.9h3v30.92a24.38,24.38,0,0,0,24.36,24.35h92.17a27.43,27.43,0,0,1,27.4,27.4Z"/><path class="cls-2" d="M161.77,659.71h-3V545.1a20.81,20.81,0,0,0-20.79-20.79,23.86,23.86,0,0,1-23.84-23.83V455.36A27.43,27.43,0,0,1,141.5,428h82.13A24.38,24.38,0,0,0,248,403.61v-14.7h3v14.7A27.42,27.42,0,0,1,223.62,431H141.5a24.38,24.38,0,0,0-24.35,24.35v45.12a20.81,20.81,0,0,0,20.79,20.78,23.86,23.86,0,0,1,23.83,23.84Z"/><path class="cls-3" d="M244.31,706.72s0,0,0-.06,0,0,0,0l-.07-.13a2.47,2.47,0,0,0-.13-.23L224,669.6a32.87,32.87,0,0,0-2.95-5.37h0s0,0,0,0A32.34,32.34,0,0,0,194.22,650H129.08a32.35,32.35,0,0,0-26.75,14.15s0,0,0,0h0a32.14,32.14,0,0,0-2.94,5.37L79.24,706.29l-.13.23-.07.13s0,0,0,0,0,0,0,.06a17.55,17.55,0,0,0,24.51,23.19s0,0,.07,0h0l30.66-16.28a9.58,9.58,0,0,1,4.49-1.12h45.82a9.61,9.61,0,0,1,4.49,1.12l30.65,16.28h0s0,0,.06,0a17.55,17.55,0,0,0,24.51-23.19Z"/><path class="cls-4" d="M109.73,682.41a20.79,20.79,0,1,1,20.79,20.8A20.79,20.79,0,0,1,109.73,682.41Z"/><path class="cls-4" d="M173.85,682.41a20.79,20.79,0,1,1,20.79,20.8A20.79,20.79,0,0,1,173.85,682.41Z"/><rect class="cls-2" x="124.47" y="666.55" width="12.1" height="31.73" rx="5.41" ry="5.41"/><path class="cls-2" d="M120.07,688.47a5.42,5.42,0,0,1-5.42-5.42v-1.27a5.42,5.42,0,0,1,5.42-5.41H141a5.41,5.41,0,0,1,5.41,5.41V683a5.41,5.41,0,0,1-5.41,5.42Z"/><path class="cls-2" d="M183.59,676a6,6,0,1,1-6,6A6,6,0,0,1,183.59,676Z"/><path class="cls-2" d="M205.36,676a6,6,0,1,1-6,6A6,6,0,0,1,205.36,676Z"/><path class="cls-2" d="M194.68,687.14a6,6,0,1,1-6,6A6,6,0,0,1,194.68,687.14Z"/><circle class="cls-2" cx="194.68" cy="671.26" r="6.03"/><path class="cls-5" d="M458.28,475.26H281.92l2.64-8.55c14.65-47.52,32.73-104.22,21.93-154.81l-.79-3.69H434.49L433.35,313c-11.74,49.45,6.27,106.08,21.64,152.36Z"/><path class="cls-6" d="M438.19,409.46a300.52,300.52,0,0,1-7.64-42.85h-122A326.68,326.68,0,0,1,301,409.46Z"/><path class="cls-7" d="M598,363.56a27.74,27.74,0,0,1-27.74,27.74H170a27.74,27.74,0,0,1-27.74-27.74V125.78A27.74,27.74,0,0,1,170,98H570.22A27.74,27.74,0,0,1,598,125.78Z"/><rect class="cls-8" x="169.13" y="124" width="401.94" height="241.33"/><path class="cls-9" d="M276.48,467.33H463.72a7.93,7.93,0,0,1,7.93,7.93v4.46a7.93,7.93,0,0,1-7.93,7.93H276.47a7.92,7.92,0,0,1-7.92-7.92v-4.46a7.93,7.93,0,0,1,7.93-7.93Z"/><circle class="cls-4" cx="370.1" cy="378.83" r="7.27"/><path class="cls-10" d="M557.81,498.74a26.22,26.22,0,0,0-24.18-26.13l-.1-.11H215.79l0,0-.38,0a26.24,26.24,0,0,0-26.24,26.23c0,.69.05,1.38.1,2.06l-.11.11v112.7H557.8V499h0C557.79,498.89,557.81,498.82,557.81,498.74Z"/><path class="cls-11" d="M557.81,493.14A26.22,26.22,0,0,0,533.63,467l-.1-.11H215.79l0,0-.38,0a26.24,26.24,0,0,0-26.24,26.24c0,.69.05,1.37.1,2.06l-.11.12V608H557.8V493.38h0C557.79,493.29,557.81,493.22,557.81,493.14Z"/><g class="cls-12"><rect class="cls-10" x="211.59" y="568.56" width="23.88" height="23.87"/><rect class="cls-10" x="435.78" y="568.56" width="23.87" height="23.87"/><rect class="cls-10" x="473.15" y="568.56" width="23.87" height="23.87"/><rect class="cls-10" x="509.34" y="568.56" width="23.86" height="23.87"/><rect class="cls-10" x="435.78" y="534.66" width="23.87" height="23.87"/><rect class="cls-10" x="473.15" y="534.66" width="23.87" height="23.87"/><rect class="cls-10" x="509.34" y="534.66" width="23.86" height="23.87"/><rect class="cls-10" x="435.78" y="497.84" width="23.87" height="23.87"/><rect class="cls-10" x="473.15" y="497.84" width="23.87" height="23.87"/><rect class="cls-10" x="509.34" y="497.84" width="23.86" height="23.87"/><rect class="cls-10" x="211.59" y="534.66" width="23.88" height="23.87"/><rect class="cls-10" x="248.96" y="534.66" width="23.87" height="23.87"/><rect class="cls-10" x="285.15" y="534.66" width="23.87" height="23.87"/><rect class="cls-10" x="211.59" y="497.84" width="23.88" height="23.87"/><rect class="cls-10" x="248.96" y="497.84" width="23.87" height="23.87"/><rect class="cls-10" x="285.15" y="497.84" width="23.87" height="23.87"/><rect class="cls-10" x="320.71" y="534.66" width="23.87" height="23.87"/><rect class="cls-10" x="358.08" y="534.66" width="23.87" height="23.87"/><rect class="cls-10" x="394.26" y="534.66" width="23.87" height="23.87"/><rect class="cls-10" x="320.71" y="497.84" width="23.87" height="23.87"/><rect class="cls-10" x="358.08" y="497.84" width="23.87" height="23.87"/><rect class="cls-10" x="394.26" y="497.84" width="23.87" height="23.87"/><rect class="cls-10" x="251.03" y="568.56" width="167.1" height="23.87"/></g><rect class="cls-7" x="211.59" y="565.02" width="23.88" height="23.88"/><rect class="cls-7" x="435.78" y="565.02" width="23.87" height="23.88"/><rect class="cls-7" x="473.15" y="565.02" width="23.87" height="23.88"/><rect class="cls-7" x="509.34" y="565.02" width="23.86" height="23.88"/><rect class="cls-7" x="435.78" y="531.12" width="23.87" height="23.87"/><rect class="cls-7" x="473.15" y="531.12" width="23.87" height="23.87"/><rect class="cls-7" x="509.34" y="531.12" width="23.86" height="23.87"/><rect class="cls-7" x="435.78" y="494.3" width="23.87" height="23.88"/><rect class="cls-7" x="473.15" y="494.3" width="23.87" height="23.88"/><rect class="cls-7" x="509.34" y="494.3" width="23.86" height="23.88"/><rect class="cls-7" x="211.59" y="531.12" width="23.88" height="23.87"/><rect class="cls-7" x="248.96" y="531.12" width="23.87" height="23.87"/><rect class="cls-7" x="285.15" y="531.12" width="23.87" height="23.87"/><rect class="cls-7" x="211.59" y="494.3" width="23.88" height="23.88"/><rect class="cls-7" x="248.96" y="494.3" width="23.87" height="23.88"/><rect class="cls-7" x="285.15" y="494.3" width="23.87" height="23.88"/><rect class="cls-7" x="320.71" y="531.12" width="23.87" height="23.87"/><rect class="cls-7" x="358.08" y="531.12" width="23.87" height="23.87"/><rect class="cls-7" x="394.26" y="531.12" width="23.87" height="23.87"/><rect class="cls-7" x="320.71" y="494.3" width="23.87" height="23.88"/><rect class="cls-7" x="358.08" y="494.3" width="23.87" height="23.88"/><rect class="cls-7" x="394.26" y="494.3" width="23.87" height="23.88"/><rect class="cls-7" x="251.03" y="565.02" width="167.1" height="23.88"/><path class="cls-2" d="M367.48,305.3a60.4,60.4,0,0,1-38.33-13.66l-20,20a88.06,88.06,0,0,0,58.12,21.66,89.05,89.05,0,0,0,21.27-2.57l-8.79-26.7A60.66,60.66,0,0,1,367.48,305.3Z"/><path class="cls-4" d="M307.21,251.24H278.74a88,88,0,0,0,21.4,51.44l20.07-20.07A60.22,60.22,0,0,1,307.21,251.24Z"/><path class="cls-2" d="M360.56,184.43V156a88.76,88.76,0,0,0-81.87,82.5h28.46A60.65,60.65,0,0,1,360.56,184.43Z"/><path class="cls-13" d="M388.84,187.92l12.84-25.19A89.43,89.43,0,0,0,373.25,156v28.31A60.31,60.31,0,0,1,388.84,187.92Z"/><path class="cls-4" d="M430.18,181.77a89,89,0,0,0-17-13.32l-12.9,25.21a60.62,60.62,0,0,1,23.64,73.25l25.06,12.82A88.45,88.45,0,0,0,430.18,181.77Z"/><path class="cls-13" d="M418,278.21a60.81,60.81,0,0,1-26.18,22l8.79,26.66A87.76,87.76,0,0,0,430,307.35,88.78,88.78,0,0,0,442.95,291Z"/><rect class="cls-4" x="190.67" y="143.85" width="27.76" height="27.76"/><rect class="cls-13" x="190.67" y="204.71" width="27.76" height="27.76"/><rect class="cls-2" x="190.67" y="268.6" width="27.76" height="27.76"/><rect class="cls-2" x="462.23" y="300.17" width="87.48" height="8.36"/><rect class="cls-2" x="462.23" y="318.43" width="87.48" height="8.37"/><rect class="cls-2" x="462.23" y="336.68" width="87.48" height="8.37"/><path class="cls-11" d="M649.41,648a8.56,8.56,0,0,0-8.57-8.57h-43a8.57,8.57,0,0,0-8.57,8.57v46.54a30.06,30.06,0,0,0,60.12,0Z"/><path class="cls-7" d="M640.83,639.46h-43a8.57,8.57,0,0,0-8.57,8.57v16.14h60.12V648A8.56,8.56,0,0,0,640.83,639.46Z"/><rect class="cls-13" x="617.56" y="639.43" width="3.59" height="23.9"/><path class="cls-13" d="M623.81,667.81a4.46,4.46,0,1,1-8.92,0v-12a4.46,4.46,0,1,1,8.92,0Z"/><path class="cls-14" d="M741,378.48a20.25,20.25,0,0,0-1-6.21h-7v12.62h6.91A20.21,20.21,0,0,0,741,378.48Z"/><path class="cls-14" d="M739.32,386.5H733v7.62A17.7,17.7,0,0,0,739.32,386.5Z"/><path class="cls-14" d="M723,378.48a20.39,20.39,0,0,0,1,6.41h7.35V372.26H724A20.06,20.06,0,0,0,723,378.48Z"/><path class="cls-14" d="M731.41,370.65v-8.1a17.52,17.52,0,0,0-6.82,8.1Z"/><path class="cls-14" d="M728.08,363a16.18,16.18,0,0,0-9.86,7.63h4.64A19.82,19.82,0,0,1,728.08,363Z"/><path class="cls-14" d="M735.43,394.35a16.12,16.12,0,0,0,10.78-7.84h-5.14A19.66,19.66,0,0,1,735.43,394.35Z"/><path class="cls-14" d="M742.59,378.48a21.88,21.88,0,0,1-1,6.41H747a16.17,16.17,0,0,0,0-12.62H741.7A21.83,21.83,0,0,1,742.59,378.48Z"/><path class="cls-14" d="M733,362.82v7.83h6.38A17.59,17.59,0,0,0,733,362.82Z"/><path class="cls-14" d="M741.15,370.65h5.06a16.13,16.13,0,0,0-10.45-7.77A19.82,19.82,0,0,1,741.15,370.65Z"/><path class="cls-14" d="M731.41,394.39V386.5h-6.72A17.41,17.41,0,0,0,731.41,394.39Z"/><path class="cls-14" d="M753.83,344.75h-110a8.56,8.56,0,0,0-8.56,8.56v62.35a8.57,8.57,0,0,0,8.56,8.56h110a8.57,8.57,0,0,0,8.56-8.56V353.31A8.56,8.56,0,0,0,753.83,344.75Zm-21.61,16.11a17.71,17.71,0,1,1-17.72,17.72A17.74,17.74,0,0,1,732.22,360.86ZM645.8,374.76h21.75v5.79H645.8Zm0,9.22h38.43v5.79H645.8Zm21.35,30.92H645.8v-7.64h21.35Zm28.13,0H673.93v-7.64h21.35Zm28.14,0H702.07v-7.64h21.35Zm28.41,0H730.2v-7.64h21.63Z"/><path class="cls-14" d="M728.43,394.21a19.67,19.67,0,0,1-5.48-7.71h-4.73A16.13,16.13,0,0,0,728.43,394.21Z"/><path class="cls-14" d="M722.37,384.88a21.57,21.57,0,0,1-1-6.41,21.89,21.89,0,0,1,.9-6.21h-4.87a15.76,15.76,0,0,0,0,12.62Z"/><path class="cls-2" d="M685.69,214.36a1.09,1.09,0,0,1-1.85-.71l-18.19-47.77L713.44,184a1.11,1.11,0,0,1,.71,1.89l-11.73,8.26,12,12a2.44,2.44,0,0,1,0,3.46l-5.28,5.29a2.47,2.47,0,0,1-3.46,0l-12-12Z"/><path class="cls-2" d="M100.88,213.93a4.52,4.52,0,0,1-2-3.79,4.64,4.64,0,0,1,2-3.87,6.93,6.93,0,0,0,2.61-8,7.05,7.05,0,0,0-6.75-5.18h-.33a4.53,4.53,0,0,1-3.74-1.95,4.64,4.64,0,0,1-.59-4.28,6.8,6.8,0,0,0-.88-6.26,7.71,7.71,0,0,0-6.18-3.26,6.79,6.79,0,0,0-4.17,1.43,4.55,4.55,0,0,1-2.78,1,4.66,4.66,0,0,1-4.5-3.37,7.2,7.2,0,0,0-13.82,0,4.66,4.66,0,0,1-7.32,2.38,6.71,6.71,0,0,0-4.12-1.42,7.66,7.66,0,0,0-6.13,3.26,6.9,6.9,0,0,0-.9,6.35,4.52,4.52,0,0,1-.57,4.18,4.62,4.62,0,0,1-3.83,2h-.35a7.3,7.3,0,0,0-4,13.19,4.53,4.53,0,0,1,2,3.79,4.63,4.63,0,0,1-2,3.87,7,7,0,0,0-2.62,8,7.06,7.06,0,0,0,6.75,5.17H37a4.51,4.51,0,0,1,3.73,1.95,4.62,4.62,0,0,1,.59,4.29,6.8,6.8,0,0,0,.88,6.26,7.71,7.71,0,0,0,6.18,3.26,6.82,6.82,0,0,0,4.18-1.43,4.5,4.5,0,0,1,2.77-1,4.66,4.66,0,0,1,4.49,3.38,7,7,0,0,0,6.88,4.95,7,7,0,0,0,7-5,4.59,4.59,0,0,1,4.45-3.29,4.64,4.64,0,0,1,2.86,1,6.72,6.72,0,0,0,4.12,1.42,7.69,7.69,0,0,0,6.14-3.26,6.93,6.93,0,0,0,.9-6.35,4.51,4.51,0,0,1,.57-4.17,4.63,4.63,0,0,1,3.83-2h.35a7.3,7.3,0,0,0,4-13.18Zm-.66,7a3.59,3.59,0,0,1-3.45,2.66h-.24a8.19,8.19,0,0,0-6.67,3.46,8,8,0,0,0-1,7.35,3.45,3.45,0,0,1-.46,3.18,4.22,4.22,0,0,1-3.3,1.79,3.25,3.25,0,0,1-2-.7,8.12,8.12,0,0,0-12.75,4.08,3.65,3.65,0,0,1-3.63,2.52,3.52,3.52,0,0,1-3.54-2.46A8.11,8.11,0,0,0,55.32,237a8,8,0,0,0-4.89,1.67,3.33,3.33,0,0,1-2.06.71A4.2,4.2,0,0,1,45,237.59a3.26,3.26,0,0,1-.44-3.09,8.22,8.22,0,0,0-1-7.45A8,8,0,0,0,37,223.63h-.35a3.66,3.66,0,0,1-3.43-2.73,3.52,3.52,0,0,1,1.26-4.07A8.18,8.18,0,0,0,38,210.09a8.07,8.07,0,0,0-3.5-6.66,3.59,3.59,0,0,1-1.3-4.17,3.55,3.55,0,0,1,3.45-2.67h.24a8.19,8.19,0,0,0,6.68-3.46,8,8,0,0,0,1-7.35,3.42,3.42,0,0,1,.46-3.18,4.21,4.21,0,0,1,3.3-1.79,3.19,3.19,0,0,1,2,.7,8.13,8.13,0,0,0,12.78-4.15,3.73,3.73,0,0,1,7.15,0,8.1,8.1,0,0,0,7.82,5.86A7.94,7.94,0,0,0,83,181.57a3.36,3.36,0,0,1,2.06-.71,4.23,4.23,0,0,1,3.34,1.79,3.25,3.25,0,0,1,.44,3.09,8.16,8.16,0,0,0,1,7.45,8,8,0,0,0,6.58,3.42h.33a3.67,3.67,0,0,1,3.43,2.73A3.51,3.51,0,0,1,99,203.4a8.19,8.19,0,0,0-3.56,6.74,8.06,8.06,0,0,0,3.51,6.65A3.61,3.61,0,0,1,100.21,221Z"/><path class="cls-2" d="M66.72,187.1A22.91,22.91,0,1,0,89.63,210,22.93,22.93,0,0,0,66.72,187.1Zm0,42.34A19.43,19.43,0,1,1,86.15,210,19.45,19.45,0,0,1,66.72,229.44Z"/><path class="cls-2" d="M97.4,310.61a6.19,6.19,0,0,1-2.73-5.17,6.32,6.32,0,0,1,2.8-5.28A9.49,9.49,0,0,0,101,289.27a9.64,9.64,0,0,0-9.22-7.07h-.45a6.2,6.2,0,0,1-5.11-2.65,6.37,6.37,0,0,1-.79-5.85,9.26,9.26,0,0,0-1.2-8.54,10.52,10.52,0,0,0-8.44-4.45,9.29,9.29,0,0,0-5.7,2A6.19,6.19,0,0,1,66.33,264a6.36,6.36,0,0,1-6.13-4.61,9.84,9.84,0,0,0-18.87,0,6.34,6.34,0,0,1-6.13,4.58,6.26,6.26,0,0,1-3.87-1.33,9.2,9.2,0,0,0-5.63-1.93,10.46,10.46,0,0,0-8.38,4.45,9.41,9.41,0,0,0-1.23,8.67,6.19,6.19,0,0,1-.79,5.71,6.33,6.33,0,0,1-5.24,2.71H9.62a9.5,9.5,0,0,0-9.1,7,9.62,9.62,0,0,0,3.62,11,6.18,6.18,0,0,1,2.72,5.17,6.32,6.32,0,0,1-2.8,5.28A9.5,9.5,0,0,0,.48,321.54,9.64,9.64,0,0,0,9.7,328.6h.46a6.19,6.19,0,0,1,5.11,2.66,6.37,6.37,0,0,1,.8,5.85,9.23,9.23,0,0,0,1.19,8.54,10.52,10.52,0,0,0,8.44,4.45,9.27,9.27,0,0,0,5.71-2,6.16,6.16,0,0,1,3.79-1.31,6.36,6.36,0,0,1,6.13,4.61,9.48,9.48,0,0,0,9.39,6.76,9.59,9.59,0,0,0,9.5-6.85,6.27,6.27,0,0,1,6.07-4.5,6.37,6.37,0,0,1,3.9,1.34,9.17,9.17,0,0,0,5.63,1.94,10.48,10.48,0,0,0,8.39-4.45A9.42,9.42,0,0,0,85.43,337a6.17,6.17,0,0,1,.78-5.71,6.33,6.33,0,0,1,5.24-2.71h.46a10,10,0,0,0,5.48-18Zm-.91,9.61a4.87,4.87,0,0,1-4.72,3.64h-.32a11.17,11.17,0,0,0-9.11,4.73,10.85,10.85,0,0,0-1.37,10,4.69,4.69,0,0,1-.64,4.34,5.73,5.73,0,0,1-4.5,2.44,4.41,4.41,0,0,1-2.73-1A11.08,11.08,0,0,0,55.68,350a5,5,0,0,1-5,3.45,4.81,4.81,0,0,1-4.84-3.37,11.06,11.06,0,0,0-10.68-8,10.85,10.85,0,0,0-6.69,2.29,4.53,4.53,0,0,1-2.81,1,5.78,5.78,0,0,1-4.56-2.43,4.48,4.48,0,0,1-.6-4.22,11.16,11.16,0,0,0-1.39-10.17,10.86,10.86,0,0,0-9-4.67H9.7A5,5,0,0,1,5,320.13a4.81,4.81,0,0,1,1.73-5.56,11.16,11.16,0,0,0,4.86-9.2,11,11,0,0,0-4.79-9.09A4.92,4.92,0,0,1,5,290.59,4.85,4.85,0,0,1,9.76,287h.32a11.17,11.17,0,0,0,9.12-4.72,10.89,10.89,0,0,0,1.37-10,4.69,4.69,0,0,1,.64-4.34,5.75,5.75,0,0,1,4.5-2.43,4.41,4.41,0,0,1,2.74.95,11.1,11.1,0,0,0,17.44-5.66,5.09,5.09,0,0,1,9.77,0,11.07,11.07,0,0,0,10.68,8A10.85,10.85,0,0,0,73,266.42a4.57,4.57,0,0,1,2.81-1,5.79,5.79,0,0,1,4.57,2.44,4.48,4.48,0,0,1,.61,4.22,11.17,11.17,0,0,0,1.39,10.17,10.88,10.88,0,0,0,9,4.67h.45a5,5,0,0,1,4.69,3.73,4.8,4.8,0,0,1-1.72,5.56,11.15,11.15,0,0,0-4.86,9.2,11,11,0,0,0,4.79,9.08A4.93,4.93,0,0,1,96.49,320.22Z"/><path class="cls-2" d="M50.77,274A31.27,31.27,0,1,0,82,305.26,31.3,31.3,0,0,0,50.77,274Zm0,57.79a26.53,26.53,0,1,1,26.52-26.53A26.56,26.56,0,0,1,50.77,331.79Z"/><path class="cls-11" d="M502.29,14.83C466.66,14.83,450,41,450,41s14,26.17,52.31,26.17S554.61,41,554.61,41,537.93,14.83,502.29,14.83Zm0,46.71A20.54,20.54,0,1,1,522.84,41,20.54,20.54,0,0,1,502.29,61.53Z"/><circle class="cls-11" cx="502.29" cy="40.99" r="10.3"/><path class="cls-14" d="M320.05,34.88l-1.45,0v-12h1.13a5.32,5.32,0,0,1,5.31,5.32h4.87A10.19,10.19,0,0,0,319.74,18h-1.13V14.38h-4.86V18a11,11,0,0,0-10.92,11,10.87,10.87,0,0,0,10.92,10.86v12H313a5.31,5.31,0,0,1-5.31-5.31h-4.88A10.21,10.21,0,0,0,313,56.72h.73v3.61h4.86V56.72H319a11,11,0,0,0,11-11V44.64a9.78,9.78,0,0,0-9.87-9.76Zm-6.31.07a5.87,5.87,0,0,1-4.26-1.73A5.94,5.94,0,0,1,307.71,29a6.09,6.09,0,0,1,6-6.09Zm11.3,10.81A6.1,6.1,0,0,1,319,51.85h-.36V39.77l1.51,0a4.82,4.82,0,0,1,3.49,1.41,4.88,4.88,0,0,1,1.44,3.47Z"/><path class="cls-14" d="M244.57,0V74.72H388.18V0ZM381.64,68.17H251.1V6.54H381.64Z"/><path class="cls-14" d="M337.16,14.38a30.76,30.76,0,0,1,0,46h36.58v-46Zm23,31.15A7.83,7.83,0,1,1,368,37.71,7.83,7.83,0,0,1,360.14,45.53Z"/><path class="cls-14" d="M285.75,37.36a30.7,30.7,0,0,1,10.29-23H259v46h37A30.74,30.74,0,0,1,285.75,37.36ZM273,45.53a7.83,7.83,0,1,1,7.83-7.82A7.83,7.83,0,0,1,273,45.53Z"/></g></g></g></svg>