<svg width="27" height="27" viewBox="0 0 27 27" fill="none" xmlns="http://www.w3.org/2000/svg">
<circle cx="13.5" cy="13.5" r="12.5" stroke="#FF3322" stroke-width="2"/>
<path d="M12.3435 5.3999H15.4447V13.0139L14.843 16.7862H12.9452L12.3435 13.0139V5.3999ZM12.0195 20.0725C12.0195 19.5325 12.1892 19.1082 12.5287 18.7996C12.8681 18.4756 13.3155 18.3136 13.871 18.3136C14.4572 18.3136 14.9201 18.4756 15.2595 18.7996C15.599 19.1082 15.7687 19.5325 15.7687 20.0725C15.7687 20.6125 15.599 21.0445 15.2595 21.3685C14.9201 21.6925 14.4572 21.8545 13.871 21.8545C13.3155 21.8545 12.8681 21.6925 12.5287 21.3685C12.1892 21.0445 12.0195 20.6125 12.0195 20.0725Z" fill="#FF3322"/>
</svg>
