<svg xmlns="http://www.w3.org/2000/svg" viewBox="0 0 423.88 383.63"><defs><style>.cls-1{fill:#bfd2ff;}.cls-2{fill:#63738f;}.cls-3{fill:#333842;}.cls-4{fill:#3e4d66;}.cls-5{fill:#fefeff;}.cls-6{fill:#f4df60;}.cls-7{fill:#1b94eb;}.cls-8{fill:#f32;}.cls-9{fill:#68cd5f;}.cls-10,.cls-13{fill:none;stroke:#333842;stroke-linecap:round;stroke-miterlimit:10;}.cls-10{stroke-width:0.68px;}.cls-11{fill:#9fd3f8;}.cls-12{fill:#f5f5f5;}.cls-13{stroke-width:0.75px;}.cls-14{fill:#bfc5d4;}</style></defs><title>marketing</title><g id="OBJECTS"><path class="cls-1" d="M132.14,441.18q6.74,1.36,13.51,2.56h4.72Z" transform="translate(-44.31 -68.6)"/><rect class="cls-2" x="97.57" y="287.1" width="255.76" height="152.09" rx="9.79" ry="9.79" transform="translate(-42.58 -69.68) rotate(0.27)"/><circle class="cls-3" cx="225.8" cy="290.16" r="1.17" transform="translate(-109.75 445.96) rotate(-89.73)"/><path class="cls-4" d="M371.9,440.08h0l-293.62-1.4h0a12.21,12.21,0,0,0,12.15,12.27l269.2,1.28A12.21,12.21,0,0,0,371.9,440.08Z" transform="translate(-44.31 -68.6)"/><path class="cls-5" d="M339.2,435,111,433.87a7.65,7.65,0,0,1-7.61-7.68l.6-126a7.65,7.65,0,0,1,7.68-7.61l228.18,1.09a7.65,7.65,0,0,1,7.61,7.68l-.6,126A7.65,7.65,0,0,1,339.2,435Z" transform="translate(-44.31 -68.6)"/><rect class="cls-6" x="403.4" y="155.03" width="8.38" height="33.04" transform="translate(191.73 510.54) rotate(-90)"/><rect class="cls-7" x="411.49" y="133.99" width="8.38" height="49.21" transform="translate(212.77 505.67) rotate(-90)"/><rect class="cls-8" x="422.64" y="109.88" width="8.38" height="71.52" transform="translate(236.88 503.87) rotate(-90)"/><rect class="cls-9" x="407" y="112.57" width="8.38" height="40.24" transform="translate(234.19 475.28) rotate(-90)"/><polyline class="cls-10" points="345.67 52.43 345.67 113.05 423.54 113.05"/><rect class="cls-11" x="371.94" y="125.17" width="50.78" height="4.78"/><rect class="cls-11" x="371.94" y="134.15" width="50.78" height="4.78"/><rect class="cls-11" x="371.94" y="143.14" width="50.78" height="4.8"/><rect class="cls-11" x="345.67" y="125.17" width="21.97" height="22.76"/><rect class="cls-11" x="345.67" y="152.12" width="77.05" height="4.78"/><rect class="cls-11" x="345.67" y="161.1" width="77.05" height="4.78"/><path class="cls-11" d="M290,68.86a24.35,24.35,0,0,0-4.53,1.36,3.9,3.9,0,0,1,.26.34,4,4,0,0,1-6.86,4.29,4,4,0,0,1-.2-.41,24.67,24.67,0,0,0-3.26,3.46,4,4,0,1,1-3.8,7,24.33,24.33,0,0,0-1.11,4.66,4,4,0,0,1,.5-.07,4,4,0,1,1-.29,8,24.35,24.35,0,0,0,1.38,4.64,4,4,0,1,1,4.19,6.78,24.67,24.67,0,0,0,3.54,3.34,4,4,0,0,1,.23-.57,4,4,0,1,1,6.78,4.35,24.34,24.34,0,0,0,4.76,1.12,4,4,0,1,1,8-.25,24.36,24.36,0,0,0,4.68-1.42,4,4,0,1,1,6.75-4.22,24.68,24.68,0,0,0,3.32-3.56,4,4,0,1,1,3.74-7A24.33,24.33,0,0,0,319.14,96a4,4,0,0,1-.54.07,4,4,0,1,1-.29-8.09,4,4,0,0,1,.53,0,24.32,24.32,0,0,0-1.4-4.58,4,4,0,0,1-.39.3,4,4,0,0,1-4.29-6.86,4,4,0,0,1,.43-.21,24.65,24.65,0,0,0-3.48-3.24,3.87,3.87,0,0,1-.17.41,4.05,4.05,0,1,1-6.9-4.17A24.34,24.34,0,0,0,298,68.6a3.94,3.94,0,0,1,.06.41,4,4,0,0,1-8.09.29A4,4,0,0,1,290,68.86Zm4.18,7.57a16.49,16.49,0,1,1-15.9,17.06A16.49,16.49,0,0,1,294.22,76.43Z" transform="translate(-44.31 -68.6)"/><rect class="cls-11" x="34.67" y="88.53" width="113.48" height="94.2" transform="translate(182.73 -24.39) rotate(90)"/><rect class="cls-9" x="19.13" y="55.07" width="10.51" height="24.86"/><rect class="cls-12" x="35.38" y="42.9" width="10.51" height="37.03"/><rect class="cls-7" x="51.62" y="26.11" width="10.51" height="53.83"/><rect class="cls-6" x="67.87" y="49.65" width="10.51" height="30.28"/><polyline class="cls-13" points="12.94 27.11 12.94 80.2 82.03 80.2"/><rect class="cls-5" x="11.58" y="90.33" width="70.73" height="6.77"/><rect class="cls-5" x="11.58" y="102.74" width="70.73" height="6.77"/><polygon class="cls-12" points="144.58 154.01 131.53 180.65 107.83 151.11 86.48 178.46 70.74 161.46 68.35 163.67 86.7 183.5 107.86 156.38 132.21 186.71 147.02 156.45 144.58 154.01"/><circle class="cls-8" cx="132.05" cy="183.68" r="4.2"/><circle class="cls-9" cx="145.91" cy="154.02" r="4.2"/><circle class="cls-3" cx="107.69" cy="154.02" r="4.2"/><circle class="cls-6" cx="87.09" cy="180.48" r="4.2"/><circle class="cls-11" cx="70.45" cy="163.36" r="4.2"/><polyline class="cls-13" points="58.19 143.79 58.19 199.81 152.5 199.81"/><circle class="cls-14" cx="109.56" cy="318.97" r="32.39"/><path class="cls-7" d="M153.1,388.08l-25.26-8.81a26.75,26.75,0,0,0,39,31.75Z" transform="translate(-44.31 -68.6)"/><path class="cls-11" d="M154.48,387.58l13.94,22.83a26.75,26.75,0,0,0,12.81-22.83Z" transform="translate(-44.31 -68.6)"/><path class="cls-5" d="M154.64,386.29l26.75-.37a26.75,26.75,0,0,0-8.65-19.33Z" transform="translate(-44.31 -68.6)"/><rect class="cls-3" x="72.07" y="265.91" width="74.98" height="4.15"/><rect class="cls-3" x="72.07" y="257.71" width="74.98" height="4.15"/><rect class="cls-3" x="72.07" y="249.51" width="74.98" height="4.15"/><rect class="cls-3" x="72.07" y="241.31" width="74.98" height="4.15"/><rect class="cls-3" x="72.07" y="273.52" width="74.98" height="4.15"/><rect class="cls-3" x="163.62" y="353.59" width="129.99" height="4.15"/><rect class="cls-3" x="163.62" y="345.4" width="129.99" height="4.15"/><rect class="cls-3" x="163.62" y="337.2" width="129.99" height="4.15"/><circle class="cls-11" cx="151.14" cy="39.57" r="31.32"/><path class="cls-8" d="M194.71,108.66l-24.42-8.52A25.87,25.87,0,0,0,208,130.83Z" transform="translate(-44.31 -68.6)"/><path class="cls-9" d="M196,108.17l13.48,22.08a25.87,25.87,0,0,0,12.39-22.08Z" transform="translate(-44.31 -68.6)"/><path class="cls-5" d="M196.2,106.93l25.86-.36a25.87,25.87,0,0,0-8.36-18.69Z" transform="translate(-44.31 -68.6)"/><rect class="cls-11" x="163.4" y="76.6" width="165.99" height="250.51"/><rect class="cls-6" x="215.54" y="197.27" width="11.81" height="49.71"/><rect class="cls-8" x="266.27" y="172.94" width="11.81" height="74.04"/><rect class="cls-9" x="291.63" y="139.37" width="11.8" height="107.61"/><path class="cls-13" d="M232.69,261.9c25.41-6.64,71.84-31.13,92.87-54.57" transform="translate(-44.31 -68.6)"/><polygon class="cls-3" points="282.95 136.77 281.6 140.48 281.08 138.83 279.39 138.47 282.95 136.77"/><rect class="cls-12" x="240.91" y="186.44" width="11.8" height="60.55"/><rect class="cls-7" x="190.18" y="203.02" width="11.81" height="43.96"/><polyline class="cls-13" points="314.04 246.99 180.38 246.99 180.38 134.01"/><rect class="cls-5" x="180.4" y="94.21" width="135.28" height="8.15"/><rect class="cls-5" x="209" y="107.38" width="78.08" height="8.15"/><rect class="cls-5" x="180.38" y="257.44" width="135.32" height="7.49"/><rect class="cls-5" x="180.38" y="271.17" width="135.32" height="7.49"/><rect class="cls-5" x="180.38" y="284.91" width="135.32" height="7.49"/><rect class="cls-5" x="180.38" y="299.75" width="60.09" height="7.49"/></g></svg>