<svg width="27" height="27" viewBox="0 0 27 27" fill="none" xmlns="http://www.w3.org/2000/svg">
<circle cx="13.5" cy="13.5" r="12.5" fill="white" stroke="#68CD5F" stroke-width="2"/>
<path d="M20.1516 7.16148C19.8401 6.96557 19.4614 6.89766 19.0984 6.97267C18.7355 7.04768 18.4181 7.25948 18.2158 7.56156L12.1219 16.6823L9.30664 14.1547C9.17224 14.0307 9.01381 13.9339 8.84056 13.8699C8.66732 13.8059 8.4827 13.7759 8.29743 13.7817C8.11216 13.7876 7.92993 13.8291 7.76132 13.9039C7.59271 13.9787 7.44109 14.0853 7.31525 14.2174C7.18941 14.3496 7.09187 14.5047 7.02828 14.6738C6.96469 14.8429 6.93633 15.0225 6.94483 15.2024C6.95334 15.3822 6.99855 15.5585 7.07784 15.7212C7.15712 15.8839 7.26891 16.0297 7.4067 16.1501L11.4423 19.7736C11.711 20.0155 12.0524 20.1351 12.3917 20.1351C12.7684 20.1351 13.2504 19.9818 13.5667 19.516C13.7525 19.2409 20.5641 9.04119 20.5641 9.04119C20.6642 8.89146 20.7328 8.72407 20.7662 8.54857C20.7996 8.37307 20.7971 8.19291 20.7588 8.01836C20.7205 7.84381 20.6471 7.6783 20.5429 7.53128C20.4388 7.38425 20.3058 7.2586 20.1516 7.16148V7.16148Z" fill="#68CD5F"/>
</svg>
