<?xml version="1.0" standalone="no"?>
<!DOCTYPE svg PUBLIC "-//W3C//DTD SVG 20010904//EN"
 "http://www.w3.org/TR/2001/REC-SVG-20010904/DTD/svg10.dtd">
<svg version="1.0" xmlns="http://www.w3.org/2000/svg"
 width="532.000000pt" height="532.000000pt" viewBox="0 0 532.000000 532.000000"
 preserveAspectRatio="xMidYMid meet">
<metadata>
Created by potrace 1.14, written by Peter Selinger 2001-2017
</metadata>
<g transform="translate(0.000000,532.000000) scale(0.100000,-0.100000)"
fill="#000000" stroke="none">
<path d="M2705 3253 c-164 -22 -332 -129 -407 -260 -84 -146 -106 -391 -49
-555 l20 -58 -145 0 -145 0 3 343 c3 383 2 377 68 377 66 0 70 5 70 76 l0 64
-237 -2 -238 -3 -3 -59 c-4 -68 3 -76 64 -76 78 0 75 15 72 -347 l-3 -322
-265 404 -265 405 -230 -3 -230 -2 -3 -61 c-3 -68 2 -73 78 -74 69 -1 65 24
68 -432 2 -466 3 -461 -63 -466 -85 -5 -85 -5 -85 -77 l0 -65 245 0 245 0 0
64 c0 70 -5 76 -66 76 -20 0 -44 5 -55 10 -18 10 -19 25 -19 342 l0 331 172
-251 172 -252 253 0 253 0 0 -155 0 -155 -143 0 -143 0 -102 150 c-57 83 -105
150 -107 150 -3 0 -5 -92 -5 -205 l0 -205 1180 0 1180 0 0 70 0 70 330 0 329
0 6 33 c8 48 35 312 35 342 0 26 0 26 -77 23 l-76 -3 -18 -53 c-28 -82 -67
-147 -102 -168 -26 -15 -56 -19 -154 -22 l-123 -4 0 398 c0 301 3 405 13 424
11 22 21 26 77 30 l65 5 3 68 3 67 -286 0 -286 0 3 -67 3 -68 57 -5 c31 -3 60
-9 65 -13 4 -5 9 -166 11 -358 l3 -349 -200 0 -201 0 0 64 c0 74 7 83 74 92
l46 7 0 63 0 64 -265 0 -265 0 0 -64 0 -64 60 -4 c33 -2 66 -10 72 -16 7 -7
14 -41 16 -77 l4 -65 -230 0 -231 0 -21 30 c-49 69 -64 135 -64 285 -1 162 16
220 84 298 59 66 123 91 236 91 82 0 97 -3 157 -32 71 -35 108 -74 151 -159
14 -29 33 -53 41 -53 16 0 118 21 123 25 3 3 -55 348 -64 378 -5 15 -15 17
-62 15 -56 -3 -56 -3 -65 -40 l-9 -37 -50 25 c-88 44 -230 63 -353 47z m-68
-912 c64 -57 123 -74 241 -69 123 5 175 27 180 76 l3 32 125 0 124 0 0 -140 0
-140 -71 0 c-76 0 -72 -3 -102 82 -5 15 -13 13 -63 -17 -101 -61 -174 -80
-304 -80 -220 1 -366 77 -468 246 -12 20 -22 39 -22 43 0 3 70 6 156 6 l156 0
45 -39z m1203 -101 l0 -140 -130 0 -130 0 0 59 0 58 60 7 c71 8 80 20 80 100
l0 56 60 0 60 0 0 -140z"/>
</g>
</svg>
